<svg height="256" viewBox="0 0 100 100" width="256" xmlns="http://www.w3.org/2000/svg"><rect fill="#2698ba" height="100" rx="20" width="100"/><path d="m46.18 79.75q-3.78 0-6.93-.68-3.16-.67-5.18-1.48-2.02-.81-2.02-.9l-.45-.9q.09-.54.36-2.7.27-2.16.49-5.63.23-3.46.23-7.33l4.05-.45q0 6.75.9 9.99.9 3.24 3.33 4.45 2.43 1.22 7.47 1.22 5.66 0 9.09-2.66 3.42-2.65 3.42-7.24 0-2.7-1.85-4.86-1.84-2.16-4.36-3.69-2.53-1.53-7.47-4.14-4.68-2.43-7.65-4.46-2.97-2.02-5-4.81-2.02-2.79-2.02-6.48 0-4.68 2.74-8.51 2.75-3.82 7.47-6.03 4.73-2.2 10.49-2.2 3.6 0 6.66.49 3.06.5 4.86 1.04 1.8.54 2.25.72l.27.54q-.1.54-.45 2.52-.36 1.98-.82 5.49-.44 3.51-.72 7.2l-3.5.36-.54-.45q.09-.36.18-1.67.09-1.3.09-3.01 0-4.77-2.34-6.57-2.34-1.8-8.37-1.8-4.95 0-8.15 2.47-3.19 2.48-3.19 6.17 0 3.6 3.1 6.25 3.11 2.66 9.14 5.81 5.85 2.97 8.9 4.9 3.07 1.94 5.4 4.82 2.35 2.88 2.35 6.66 0 5.04-2.84 9.04-2.84 4.01-7.87 6.26-5.04 2.25-11.52 2.25z" fill="#fff"/></svg>